# xmcd CD database file
#
# Track frame offsets:
#	150
#	17007
#	36975
#	57002
#	78532
#	92715
#	107735
#	126635
#	144980
#	162087
#	177307
#	198427
#	214730
#	231370
#	246332
#
# Disc length: 3545 seconds
#
# Revision: 0
# Processed by: cddbd v1.5.1PL0 Copyright (c) Steve Scherf et al.
# Submitted via: CDex 1.51
#
DISCID=d30dd70f
DTITLE=五輪真弓 - ベスト・コレクション
DYEAR=1985
DGENRE=JPop
TTITLE0=熱いさよなら
TTITLE1=時計
TTITLE2=他人がえり
TTITLE3=真夜中のラブソング
TTITLE4=抱きしめて（愛は夢のように）
TTITLE5=野生の涙
TTITLE6=恋人よ
TTITLE7=問わず煙草
TTITLE8=リバイバル
TTITLE9=運命（さだめ）
TTITLE10=煙草のけむり
TTITLE11=合鍵
TTITLE12=残り火
TTITLE13=さよならだけは言わないで
TTITLE14=少女
EXTD=YEAR: 1985
EXTT0=
EXTT1=
EXTT2=
EXTT3=
EXTT4=
EXTT5=
EXTT6=
EXTT7=
EXTT8=
EXTT9=
EXTT10=
EXTT11=
EXTT12=
EXTT13=
EXTT14=
PLAYORDER=
